<?xml version="1.0" encoding="UTF-8"?> <!-- Generator: Adobe Illustrator 26.5.0, SVG Export Plug-In . SVG Version: 6.00 Build 0) --> <svg xmlns="http://www.w3.org/2000/svg" xmlns:xlink="http://www.w3.org/1999/xlink" id="Слой_1" x="0px" y="0px" viewBox="0 0 200 200" style="enable-background:new 0 0 200 200;" xml:space="preserve"> <style type="text/css"> .st0{fill:#FC9C41;} .st1{opacity:0.51;fill:#333333;} .st2{fill:#FFFFFF;} </style> <g> <path class="st0" d="M135.01,107.94c-0.17,18.5-15.31,33.4-33.81,33.27c-18.5-0.12-33.36-15.22-33.18-33.72 c0.17-18.5,15.31-33.4,33.81-33.28C120.32,74.34,135.19,89.44,135.01,107.94L135.01,107.94L135.01,107.94z"></path> <path class="st1" d="M118.35,98.07c-0.52-5.34-5.26-6.95-11.25-7.23l0.01-7.43l-4.64,0.18l-0.01,7.24 c-1.22,0.05-2.47,0.12-3.7,0.19l0.01-7.28l-4.64,0.18l-0.01,7.43c-1,0.06-1.99,0.11-2.95,0.15l0-0.02l-6.4,0.24l-0.01,4.83 c0,0,3.43-0.19,3.37-0.13c1.88-0.07,2.49,0.97,2.67,1.88l-0.01,8.47c0.13,0,0.3-0.01,0.49,0.01c-0.15,0.01-0.32,0.01-0.49,0.02 l-0.02,11.86c-0.08,0.58-0.43,1.51-1.74,1.57c0.06,0.05-3.37,0.13-3.37,0.13l-0.93,5.44l6.04-0.23c1.12-0.04,2.23-0.07,3.31-0.1 l-0.01,7.52l4.63-0.18l0.01-7.44c1.27-0.02,2.5-0.06,3.71-0.11l-0.01,7.4l4.64-0.18l0.01-7.5c7.8-0.73,13.26-2.86,13.95-10.03 c0.56-5.77-2.21-8.23-6.64-9.1C117.06,104.39,118.74,101.98,118.35,98.07L118.35,98.07L118.35,98.07z M111.84,114.39 c-0.01,5.62-9.87,5.36-13.01,5.48l0.02-9.96C101.99,109.79,111.85,108.53,111.84,114.39L111.84,114.39z M109.7,100.42 c-0.01,5.11-8.23,4.83-10.85,4.93l0.01-9.03C101.48,96.22,109.71,95.09,109.7,100.42L109.7,100.42z"></path> <g> <path class="st2" d="M130.6,127.91l1.65,7.93c0.16,0.76-0.51,1.43-1.27,1.28l-7.63-1.48c-2.97,2.33-6.33,4.2-9.96,5.48l28.27,5.65 c0.48,0.1,0.9-0.34,0.79-0.81l-6.89-28.77C134.51,121.07,132.82,124.68,130.6,127.91z"></path> <path class="st2" d="M71.41,125.55l-3.53-0.69c-0.89-0.23-1.84,0.02-2.49,0.67l-19.06,18.95c-0.57,0.57,0.16,1.47,0.84,1.04 l20.6-12.95c0.46-0.29,1-0.39,1.53-0.28l9.02,1.8C75.59,131.64,73.26,128.75,71.41,125.55z"></path> <path class="st2" d="M153.03,44.46l-17.04,4.49c-0.54,0.14-0.68,0.84-0.24,1.18l5.95,4.58c0.3,0.23,0.35,0.66,0.11,0.95l-4.39,5.4 c-0.22,0.27-0.61,0.33-0.9,0.14l-20.48-13.51c-0.9-0.6-2.08,0.22-1.82,1.27l6.12,29.5c2.76,1.74,5.27,3.84,7.44,6.26l-5.98-24.97 c-0.14-0.58,0.5-1.04,1.01-0.73l13.89,8.56c0.45,0.28,1.04,0.2,1.4-0.19l6.97-9.19c0.22-0.3,0.65-0.36,0.94-0.13l5.52,4.1 c0.43,0.32,1.04,0.04,1.08-0.49l1.26-16.52C153.91,44.7,153.48,44.34,153.03,44.46z"></path> </g> <path class="st2" d="M119.04,97.68c-0.53-5.33-5.21-6.96-11.11-7.27l-0.02-7.42l-4.57,0.16l0.02,7.23 c-1.2,0.04-2.43,0.11-3.65,0.18l-0.02-7.28l-4.57,0.16l0.02,7.42c-0.99,0.05-1.96,0.11-2.91,0.14l0-0.02l-6.31,0.22l0.01,4.83 c0,0,3.38-0.18,3.32-0.12c1.85-0.06,2.46,0.98,2.63,1.89l0.02,8.46c0.13,0,0.29,0,0.48,0.01c-0.15,0.01-0.32,0.01-0.48,0.02 l0.03,11.85c-0.08,0.58-0.42,1.51-1.71,1.56c0.06,0.05-3.32,0.12-3.32,0.12l-0.9,5.43l5.95-0.21c1.11-0.04,2.2-0.06,3.27-0.09 l0.02,7.51l4.57-0.16l-0.02-7.43c1.25-0.02,2.47-0.05,3.65-0.09l0.02,7.39l4.57-0.16l-0.02-7.49c7.69-0.7,13.06-2.81,13.71-9.96 c0.53-5.76-2.21-8.23-6.58-9.11C117.78,103.99,119.43,101.58,119.04,97.68L119.04,97.68L119.04,97.68z M112.68,113.96 c0.02,5.61-9.71,5.31-12.8,5.42l-0.02-9.95C102.95,109.33,112.66,108.11,112.68,113.96L112.68,113.96z M110.52,100 c0.01,5.1-8.1,4.79-10.68,4.88l-0.02-9.02C102.4,95.77,110.5,94.68,110.52,100L110.52,100z"></path> </g> </svg> 